<?xml version="1.0" standalone="no"?>
<!DOCTYPE svg PUBLIC "-//W3C//DTD SVG 20010904//EN"
 "http://www.w3.org/TR/2001/REC-SVG-20010904/DTD/svg10.dtd">
<svg version="1.0" xmlns="http://www.w3.org/2000/svg"
 width="200.000000pt" height="200.000000pt" viewBox="0 0 200.000000 200.000000"
 preserveAspectRatio="xMidYMid meet">

<g transform="translate(0.000000,200.000000) scale(0.100000,-0.100000)"
fill="#000000" stroke="none">
<path d="M511 1788 c-65 -25 -134 -90 -164 -156 -34 -73 -31 -189 6 -264 16
-32 48 -75 73 -97 86 -75 184 -89 331 -45 49 14 115 28 149 31 110 10 150 -30
208 -210 43 -131 64 -173 108 -213 62 -59 114 -79 203 -79 69 1 87 4 133 30
99 54 152 138 160 251 9 134 -49 239 -162 294 -83 41 -147 42 -271 5 -57 -18
-116 -28 -162 -29 -67 -1 -74 1 -104 29 -37 35 -66 96 -102 215 -15 47 -40
106 -57 131 -75 114 -218 158 -349 107z"/>
<path d="M827 776 c-129 -46 -205 -165 -195 -305 8 -110 63 -193 162 -241 199
-98 426 39 426 258 0 128 -53 217 -162 271 -50 26 -73 31 -127 31 -36 -1 -83
-7 -104 -14z"/>
</g>
</svg>
